# xmcd CD database file
#
# Track frame offsets:
#	183
#	10870
#	21365
#	32860
#	44645
#	53720
#	62128
#	72550
#	82755
#	91695
#	101093
#	110790
#	123478
#	132515
#	142735
#	153720
#	165668
#	177000
#	184630
#	195860
#
# Disc length: 2848 seconds
#
# Revision: 1
# Processed by: cddbd v1.5.2PL0 Copyright (c) Steve Scherf et al.
# Submitted via: CDex 1.51
#
DISCID=0f0b1e14
DTITLE=Nelson Ricky - All my best
DYEAR=1988
DGENRE=Country
TTITLE0=Travelin' man
TTITLE1=Haello Mary Lou
TTITLE2=Poor little fool
TTITLE3=You are the only one
TTITLE4=It's late
TTITLE5=You know what I mean
TTITLE6=Young world
TTITLE7=Lonesome town
TTITLE8=I got a feeling
TTITLE9=Just a little too much
TTITLE10=Believe what you say
TTITLE11=It's up to you
TTITLE12=Waitin' in school
TTITLE13=Never be anyone else but you
TTITLE14=Don't leave me this way
TTITLE15=Fools rush in
TTITLE16=Teenage idol
TTITLE17=I'm walking
TTITLE18=Sweeter than you
TTITLE19=Garden party
EXTD=YEAR: 1988
EXTT0=
EXTT1=
EXTT2=
EXTT3=
EXTT4=
EXTT5=
EXTT6=
EXTT7=
EXTT8=
EXTT9=
EXTT10=
EXTT11=
EXTT12=
EXTT13=
EXTT14=
EXTT15=
EXTT16=
EXTT17=
EXTT18=
EXTT19=
PLAYORDER=
